<svg version="1.1" id="Layer_1" xmlns="http://www.w3.org/2000/svg" xmlns:xlink="http://www.w3.org/1999/xlink" x="0px" y="0px"
	 width="100%" viewBox="0 0 257 103" enable-background="new 0 0 257 103" xml:space="preserve">
<path fill="#FFFFFF" opacity="1.000000" stroke="none" 
	d="
M258.000000,25.000000 
	C258.000000,51.293968 258.000000,77.587936 258.000000,104.000000 
	C186.979141,104.000000 115.958229,104.000000 44.598946,103.636780 
	C48.404968,102.092117 52.638206,101.150711 56.667858,99.659248 
	C60.421726,98.269859 64.025223,96.555656 61.171497,91.165543 
	C60.102142,89.145744 60.304096,86.452858 60.110847,83.876663 
	C60.407852,83.550362 60.520424,83.414268 60.893372,83.510590 
	C69.942001,91.698395 79.530510,89.983070 89.673714,86.038734 
	C90.801910,89.607094 92.914703,91.945518 97.307213,90.998497 
	C101.254707,90.147430 105.261345,89.392944 109.278465,89.103569 
	C112.064552,88.902878 113.141495,87.957802 113.044250,85.202080 
	C112.913971,81.510475 113.012001,77.810822 113.012001,73.561127 
	C123.519737,78.785362 133.177231,83.583267 142.831329,88.388000 
	C149.155594,91.535507 150.576004,90.869362 151.463898,84.012253 
	C157.711914,84.012253 164.010315,83.889580 170.300873,84.058640 
	C174.025223,84.158737 176.466064,82.751503 177.994431,79.357338 
	C180.715485,73.314529 183.573547,67.333420 186.491714,61.074692 
	C187.115051,62.341145 187.573685,63.193783 187.963272,64.076874 
	C191.704041,72.555786 195.433151,81.039841 199.446030,89.842735 
	C206.015106,90.037041 212.358963,90.375916 218.574890,89.637650 
	C223.529694,89.049164 224.039841,87.137939 221.860992,82.511398 
	C220.926331,80.526772 220.095779,78.493111 219.202271,76.445862 
	C220.931061,75.579300 222.563965,74.880348 224.074417,73.976715 
	C226.569000,72.484337 228.643616,70.643150 228.005798,67.290070 
	C227.076843,62.406353 226.112015,57.529457 225.130585,52.485806 
	C227.155563,51.208717 229.201111,49.918648 231.936661,48.193424 
	C231.936661,50.232601 232.069839,51.227249 231.914825,52.174751 
	C230.976105,57.912518 229.881912,63.626106 229.021881,69.375031 
	C228.486160,72.956223 229.103241,75.405556 233.890915,75.146477 
	C238.085999,74.919472 242.518814,75.221008 246.522705,76.394379 
	C250.662674,77.607651 251.646606,75.716217 251.975006,72.606171 
	C253.071609,62.220734 253.860153,51.800999 255.075562,41.430599 
	C255.721939,35.915241 257.004547,30.474447 258.000000,25.000000 
z"/>
<path fill="#FFFFFF" opacity="1.000000" stroke="none" 
	d="
M1.000000,35.000000 
	C1.000000,23.693529 1.000000,12.387057 1.000000,1.000000 
	C51.020866,1.000000 101.041779,1.000000 151.445496,1.334460 
	C147.657303,6.500062 143.142899,11.084889 139.437836,16.250233 
	C137.027802,19.610144 131.601044,22.090277 134.825287,28.002338 
	C133.260406,28.758503 131.891129,29.420151 130.585373,30.051104 
	C126.414719,26.238377 122.602814,22.595304 118.609833,19.162876 
	C116.227531,17.115019 113.546333,15.148373 111.894417,18.753435 
	C110.117378,18.426847 108.532120,17.631577 107.268929,17.985565 
	C99.380798,20.196091 91.495186,22.469458 83.790131,25.228592 
	C82.438965,25.712437 81.398773,28.531042 81.193726,30.379930 
	C80.934334,32.718719 81.394104,35.251564 82.066582,37.547554 
	C82.751991,39.887718 84.071716,42.042099 84.900696,43.820774 
	C81.343422,44.018379 76.334053,44.296654 72.941833,44.485092 
	C69.869133,39.206860 67.925819,33.887146 64.353378,30.107065 
	C54.029739,19.183418 40.869892,20.236973 27.585705,22.820671 
	C17.726019,24.738325 9.326650,29.773079 1.000000,35.000000 
z"/>
<path fill="#FFFFFF" opacity="1.000000" stroke="none" 
	d="
M156.000000,1.000002 
	C190.000046,1.000000 224.000092,1.000000 258.000000,1.000000 
	C258.000000,6.432117 258.000000,11.745605 257.656372,17.422653 
	C254.914337,12.549767 250.305206,9.362143 245.228043,10.055902 
	C240.205582,10.742188 236.464539,13.309029 235.677765,18.733465 
	C225.719315,13.326927 215.252335,14.173183 204.932968,16.136353 
	C195.295425,17.969809 195.456680,18.348772 191.762817,9.544456 
	C191.166275,8.122580 189.545120,6.362988 188.248260,6.231414 
	C187.090714,6.113978 185.227615,7.770785 184.534775,9.094297 
	C180.056335,17.649155 175.813324,26.327259 171.322037,35.307030 
	C170.114960,34.411011 169.103760,33.660397 168.052704,32.548470 
	C164.583115,29.745783 161.153366,27.304413 157.613297,24.784508 
	C159.897095,23.619677 162.699692,22.626270 164.909515,20.881918 
	C166.039352,19.990061 167.069519,17.162870 166.493256,16.223248 
	C163.570236,11.457120 160.105835,7.023010 156.663788,2.234314 
	C156.330963,1.664045 156.165482,1.332025 156.000000,1.000002 
z"/>
<path fill="#FFFFFF" opacity="1.000000" stroke="none" 
	d="
M40.000000,104.000000 
	C27.054930,104.000000 14.109859,104.000000 1.000000,104.000000 
	C1.000000,82.646027 1.000000,61.291672 1.343046,39.574715 
	C4.749238,44.323395 8.185013,49.255692 10.754052,54.604301 
	C12.702915,58.661732 14.571709,61.351322 19.369698,58.870426 
	C21.991728,65.035423 24.356098,70.994370 27.038027,76.806778 
	C31.065367,85.535034 35.315296,94.160591 39.604774,103.005150 
	C39.953678,103.412987 40.040691,103.686157 40.000000,104.000000 
z"/>
<path fill="#25242A" opacity="1.000000" stroke="none" 
	d="
M168.092560,32.909782 
	C169.103760,33.660397 170.114960,34.411011 171.322037,35.307030 
	C175.813324,26.327259 180.056335,17.649155 184.534775,9.094297 
	C185.227615,7.770785 187.090714,6.113978 188.248260,6.231414 
	C189.545120,6.362988 191.166275,8.122580 191.762817,9.544456 
	C195.456680,18.348772 195.295425,17.969809 204.932968,16.136353 
	C215.252335,14.173183 225.719315,13.326927 235.677765,18.733465 
	C236.464539,13.309029 240.205582,10.742188 245.228043,10.055902 
	C250.305206,9.362143 254.914337,12.549767 257.656372,17.893108 
	C258.000000,20.041666 258.000000,22.083334 258.000000,24.562500 
	C257.004547,30.474447 255.721939,35.915241 255.075562,41.430599 
	C253.860153,51.800999 253.071609,62.220734 251.975006,72.606171 
	C251.646606,75.716217 250.662674,77.607651 246.522705,76.394379 
	C242.518814,75.221008 238.085999,74.919472 233.890915,75.146477 
	C229.103241,75.405556 228.486160,72.956223 229.021881,69.375031 
	C229.881912,63.626106 230.976105,57.912518 231.914825,52.174751 
	C232.069839,51.227249 231.936661,50.232601 231.936661,48.193424 
	C229.201111,49.918648 227.155563,51.208717 225.130585,52.485806 
	C226.112015,57.529457 227.076843,62.406353 228.005798,67.290070 
	C228.643616,70.643150 226.569000,72.484337 224.074417,73.976715 
	C222.563965,74.880348 220.931061,75.579300 219.202271,76.445862 
	C220.095779,78.493111 220.926331,80.526772 221.860992,82.511398 
	C224.039841,87.137939 223.529694,89.049164 218.574890,89.637650 
	C212.358963,90.375916 206.015106,90.037041 199.723816,89.662018 
	C199.895767,89.025635 200.070389,88.890274 200.668503,88.848488 
	C207.630325,88.473946 214.168640,88.005844 221.461838,87.483696 
	C219.709915,83.019150 218.345078,79.541023 216.701141,75.351624 
	C228.072052,73.079926 226.318512,65.481003 224.074036,57.685387 
	C223.938034,57.212952 223.993973,56.688747 223.904938,56.198742 
	C222.831879,50.293140 227.515747,46.181606 233.847427,47.733265 
	C233.847427,48.816139 233.990387,49.981785 233.823303,51.101154 
	C232.990540,56.680260 232.126129,62.255756 231.171738,67.815163 
	C230.614075,71.063606 230.934570,73.337166 235.099960,73.375458 
	C238.909882,73.410477 242.720184,73.855034 246.521500,74.212761 
	C249.080719,74.453590 250.014221,73.373459 250.226746,70.842430 
	C250.670868,65.553062 251.420944,60.289272 252.050858,55.015633 
	C253.287308,44.664078 254.369858,34.290668 255.830124,23.970737 
	C256.603058,18.508142 254.621552,14.569565 249.282852,12.638790 
	C244.396118,10.871475 240.528198,12.659826 237.964767,17.843969 
	C237.408508,18.968939 236.773941,20.055183 235.971939,21.534725 
	C229.874374,16.825335 223.072266,16.418966 216.216644,16.983124 
	C210.947388,17.416737 205.576019,17.959812 200.533890,19.428543 
	C195.365494,20.934053 192.755249,19.576326 191.340790,14.578294 
	C190.700974,12.317527 189.423355,10.237257 187.949783,7.013311 
	C180.718643,21.423021 174.061401,34.689095 167.404160,47.955170 
	C166.936508,47.898685 166.468857,47.842201 166.001205,47.785717 
	C165.846207,46.613853 165.173386,44.691589 165.616180,44.386024 
	C170.122940,41.276039 169.922165,37.365829 168.011505,32.988747 
	C168.038452,32.962353 168.092560,32.909779 168.092560,32.909782 
z"/>
<path fill="#25242A" opacity="1.000000" stroke="none" 
	d="
M39.470581,102.829811 
	C35.315296,94.160591 31.065367,85.535034 27.038027,76.806778 
	C24.356098,70.994370 21.991728,65.035423 19.369698,58.870426 
	C14.571709,61.351322 12.702915,58.661732 10.754052,54.604301 
	C8.185013,49.255692 4.749238,44.323395 1.343046,39.106056 
	C1.000000,37.933331 1.000000,36.866661 1.000000,35.399994 
	C9.326650,29.773079 17.726019,24.738325 27.585705,22.820671 
	C40.869892,20.236973 54.029739,19.183418 64.353378,30.107065 
	C67.925819,33.887146 69.869133,39.206860 72.941833,44.485092 
	C76.334053,44.296654 81.343422,44.018379 84.900696,43.820774 
	C84.071716,42.042099 82.751991,39.887718 82.066582,37.547554 
	C81.394104,35.251564 80.934334,32.718719 81.193726,30.379930 
	C81.398773,28.531042 82.438965,25.712437 83.790131,25.228592 
	C91.495186,22.469458 99.380798,20.196091 107.268929,17.985565 
	C108.532120,17.631577 110.117378,18.426847 111.894417,18.753435 
	C113.546333,15.148373 116.227531,17.115019 118.609833,19.162876 
	C122.602814,22.595304 126.414719,26.238377 130.585373,30.051104 
	C131.891129,29.420151 133.260406,28.758503 134.825287,28.002338 
	C131.601044,22.090277 137.027802,19.610144 139.437836,16.250233 
	C143.142899,11.084889 147.657303,6.500062 151.914154,1.334460 
	C153.066666,1.000000 154.133347,1.000000 155.600006,1.000002 
	C156.165482,1.332025 156.330963,1.664045 156.401962,2.402709 
	C156.143509,2.936560 155.979538,3.063767 155.466843,3.151206 
	C154.111237,3.582036 152.814224,3.798751 152.144318,4.564252 
	C147.655487,9.693644 143.087616,14.780662 139.007492,20.227571 
	C137.406189,22.365278 136.993820,25.393585 136.039978,28.016300 
	C136.491257,28.216883 136.942535,28.417463 137.393814,28.618046 
	C131.172470,33.131474 131.171127,33.133007 125.755005,28.412516 
	C122.160950,25.280077 118.571404,22.142475 114.747826,18.804646 
	C112.898270,21.780436 111.268555,24.402514 108.870621,28.260597 
	C108.870621,24.575901 108.870621,22.456995 108.870621,19.184540 
	C100.322479,21.988319 92.356476,24.552496 84.449623,27.287630 
	C83.821800,27.504807 83.215919,28.928045 83.262115,29.753733 
	C83.464462,33.370171 83.910851,36.972954 84.299721,40.893444 
	C88.041191,40.731922 89.717484,42.147282 88.447510,45.304253 
	C81.460983,46.041679 75.015114,46.722042 68.715523,47.386963 
	C69.848289,39.628834 66.362694,33.946598 60.570366,29.315285 
	C52.203045,22.625111 42.602615,22.391840 32.601997,23.885174 
	C21.535454,25.537678 11.813483,30.045879 2.569433,36.930759 
	C6.573474,43.617790 10.272709,49.908722 14.134426,56.098278 
	C14.602841,56.849052 16.227119,57.680645 16.839256,57.407402 
	C20.361656,55.835091 21.201500,58.256630 22.236185,60.624378 
	C28.228632,74.337341 34.237297,88.043228 40.037193,102.013367 
	C39.712799,102.460091 39.591690,102.644951 39.470581,102.829811 
z"/>
<path fill="#25242A" opacity="1.000000" stroke="none" 
	d="
M40.399994,104.000000 
	C40.040691,103.686157 39.953678,103.412987 39.604774,103.005150 
	C39.591690,102.644951 39.712799,102.460091 40.412624,102.083221 
	C46.226482,100.351196 51.432045,98.698631 56.707584,97.312355 
	C60.000782,96.446983 60.320168,94.621689 59.489471,91.708794 
	C57.851658,85.965721 56.286877,80.187119 55.087963,74.341972 
	C54.696224,72.432114 55.533039,70.270248 55.807991,68.223640 
	C56.403782,68.233673 56.999569,68.243713 57.595356,68.253746 
	C57.785606,76.940231 61.146034,83.933472 69.544807,86.482079 
	C77.200188,88.805107 84.851143,87.290154 91.476700,81.623039 
	C92.757706,89.525078 92.753769,89.502983 99.485184,88.303055 
	C101.932358,87.866821 104.407005,87.243851 106.862518,87.272415 
	C110.873474,87.319084 111.444405,85.180038 111.248138,81.876320 
	C111.039589,78.365860 111.201248,74.833412 111.201248,70.344650 
	C124.350662,76.837868 136.169632,82.674103 149.002808,89.011154 
	C149.002808,83.794426 149.305786,79.834450 148.929825,75.940033 
	C148.402451,70.477325 151.551361,70.069977 156.111496,70.191216 
	C154.285858,74.223183 152.637085,77.864540 150.763229,82.002998 
	C157.137360,82.002998 162.628937,81.690361 168.067123,82.095139 
	C173.030319,82.464554 175.555786,80.648132 177.349442,75.972778 
	C179.734436,69.756058 183.079041,63.907482 186.011368,57.900742 
	C186.501251,57.974545 186.991135,58.048351 187.481018,58.122158 
	C191.735672,68.333076 195.990326,78.543999 200.244995,88.754921 
	C200.070389,88.890274 199.895767,89.025635 199.443359,89.341705 
	C195.433151,81.039841 191.704041,72.555786 187.963272,64.076874 
	C187.573685,63.193783 187.115051,62.341145 186.491714,61.074692 
	C183.573547,67.333420 180.715485,73.314529 177.994431,79.357338 
	C176.466064,82.751503 174.025223,84.158737 170.300873,84.058640 
	C164.010315,83.889580 157.711914,84.012253 151.463898,84.012253 
	C150.576004,90.869362 149.155594,91.535507 142.831329,88.388000 
	C133.177231,83.583267 123.519737,78.785362 113.012001,73.561127 
	C113.012001,77.810822 112.913971,81.510475 113.044250,85.202080 
	C113.141495,87.957802 112.064552,88.902878 109.278465,89.103569 
	C105.261345,89.392944 101.254707,90.147430 97.307213,90.998497 
	C92.914703,91.945518 90.801910,89.607094 89.673714,86.038734 
	C79.530510,89.983070 69.942001,91.698395 60.684402,83.261398 
	C60.029842,82.237785 59.844624,81.695778 59.659401,81.153778 
	C59.390728,81.256989 59.122051,81.360191 58.853378,81.463402 
	C59.211060,82.331223 59.568741,83.199036 59.926422,84.066856 
	C60.304096,86.452858 60.102142,89.145744 61.171497,91.165543 
	C64.025223,96.555656 60.421726,98.269859 56.667858,99.659248 
	C52.638206,101.150711 48.404968,102.092117 44.130287,103.636780 
	C42.933331,104.000000 41.866661,104.000000 40.399994,104.000000 
z"/>
<path fill="#25242A" opacity="1.000000" stroke="none" 
	d="
M156.569305,2.640957 
	C160.105835,7.023010 163.570236,11.457120 166.493256,16.223248 
	C167.069519,17.162870 166.039352,19.990061 164.909515,20.881918 
	C162.699692,22.626270 159.897095,23.619677 157.613297,24.784508 
	C161.153366,27.304413 164.583115,29.745783 168.052704,32.548466 
	C168.092560,32.909779 168.038452,32.962353 167.654541,33.076427 
	C162.454391,30.603085 157.638168,28.015665 152.718491,25.372669 
	C156.593643,23.263506 160.835129,20.954952 165.154877,18.603798 
	C161.784058,13.040866 158.799805,8.115919 155.815552,3.190974 
	C155.979538,3.063767 156.143509,2.936560 156.569305,2.640957 
z"/>
<path fill="#385D9B" opacity="1.000000" stroke="none" 
	d="
M155.466843,3.151206 
	C158.799805,8.115919 161.784058,13.040866 165.154877,18.603798 
	C160.835129,20.954952 156.593643,23.263506 152.718491,25.372669 
	C157.638168,28.015665 162.454391,30.603085 167.627594,33.102821 
	C169.922165,37.365829 170.122940,41.276039 165.616180,44.386024 
	C165.173386,44.691589 165.846207,46.613853 166.001205,47.785717 
	C166.468857,47.842201 166.936508,47.898685 167.404160,47.955170 
	C174.061401,34.689095 180.718643,21.423021 187.949783,7.013311 
	C189.423355,10.237257 190.700974,12.317527 191.340790,14.578294 
	C192.755249,19.576326 195.365494,20.934053 200.533890,19.428543 
	C205.576019,17.959812 210.947388,17.416737 216.216644,16.983124 
	C223.072266,16.418966 229.874374,16.825335 235.971939,21.534725 
	C236.773941,20.055183 237.408508,18.968939 237.964767,17.843969 
	C240.528198,12.659826 244.396118,10.871475 249.282852,12.638790 
	C254.621552,14.569565 256.603058,18.508142 255.830124,23.970737 
	C254.369858,34.290668 253.287308,44.664078 252.050858,55.015633 
	C251.420944,60.289272 250.670868,65.553062 250.226746,70.842430 
	C250.014221,73.373459 249.080719,74.453590 246.521500,74.212761 
	C242.720184,73.855034 238.909882,73.410477 235.099960,73.375458 
	C230.934570,73.337166 230.614075,71.063606 231.171738,67.815163 
	C232.126129,62.255756 232.990540,56.680260 233.823303,51.101154 
	C233.990387,49.981785 233.847427,48.816139 233.847427,47.733265 
	C227.515747,46.181606 222.831879,50.293140 223.904938,56.198742 
	C223.993973,56.688747 223.938034,57.212952 224.074036,57.685387 
	C226.318512,65.481003 228.072052,73.079926 216.701141,75.351624 
	C218.345078,79.541023 219.709915,83.019150 221.461838,87.483696 
	C214.168640,88.005844 207.630325,88.473946 200.668503,88.848488 
	C195.990326,78.543999 191.735672,68.333076 187.481018,58.122158 
	C186.991135,58.048351 186.501251,57.974545 186.011368,57.900742 
	C183.079041,63.907482 179.734436,69.756058 177.349442,75.972778 
	C175.555786,80.648132 173.030319,82.464554 168.067123,82.095139 
	C162.628937,81.690361 157.137360,82.002998 150.763229,82.002998 
	C152.637085,77.864540 154.285858,74.223183 156.111496,70.191216 
	C151.551361,70.069977 148.402451,70.477325 148.929825,75.940033 
	C149.305786,79.834450 149.002808,83.794426 149.002808,89.011154 
	C136.169632,82.674103 124.350662,76.837868 111.201248,70.344650 
	C111.201248,74.833412 111.039589,78.365860 111.248138,81.876320 
	C111.444405,85.180038 110.873474,87.319084 106.862518,87.272415 
	C104.407005,87.243851 101.932358,87.866821 99.485184,88.303055 
	C92.753769,89.502983 92.757706,89.525078 91.476700,81.623039 
	C84.851143,87.290154 77.200188,88.805107 69.544807,86.482079 
	C61.146034,83.933472 57.785606,76.940231 57.595356,68.253746 
	C56.999569,68.243713 56.403782,68.233673 55.807991,68.223640 
	C55.533039,70.270248 54.696224,72.432114 55.087963,74.341972 
	C56.286877,80.187119 57.851658,85.965721 59.489471,91.708794 
	C60.320168,94.621689 60.000782,96.446983 56.707584,97.312355 
	C51.432045,98.698631 46.226482,100.351196 40.615906,101.821365 
	C34.237297,88.043228 28.228632,74.337341 22.236185,60.624378 
	C21.201500,58.256630 20.361656,55.835091 16.839256,57.407402 
	C16.227119,57.680645 14.602841,56.849052 14.134426,56.098278 
	C10.272709,49.908722 6.573474,43.617790 2.569433,36.930759 
	C11.813483,30.045879 21.535454,25.537678 32.601997,23.885174 
	C42.602615,22.391840 52.203045,22.625111 60.570366,29.315285 
	C66.362694,33.946598 69.848289,39.628834 68.715523,47.386963 
	C75.015114,46.722042 81.460983,46.041679 88.447510,45.304253 
	C89.717484,42.147282 88.041191,40.731922 84.299721,40.893444 
	C83.910851,36.972954 83.464462,33.370171 83.262115,29.753733 
	C83.215919,28.928045 83.821800,27.504807 84.449623,27.287630 
	C92.356476,24.552496 100.322479,21.988319 108.870621,19.184540 
	C108.870621,22.456995 108.870621,24.575901 108.870621,28.260597 
	C111.268555,24.402514 112.898270,21.780436 114.747826,18.804646 
	C118.571404,22.142475 122.160950,25.280077 125.755005,28.412516 
	C131.171127,33.133007 131.172470,33.131474 137.393814,28.618046 
	C136.942535,28.417463 136.491257,28.216883 136.039978,28.016300 
	C136.993820,25.393585 137.406189,22.365278 139.007492,20.227571 
	C143.087616,14.780662 147.655487,9.693644 152.144318,4.564252 
	C152.814224,3.798751 154.111237,3.582036 155.466843,3.151206 
M43.382668,29.000898 
	C32.790596,28.194998 22.911703,30.592636 13.734204,35.827168 
	C12.444914,36.562534 10.482059,38.511284 10.733752,39.159035 
	C12.186003,42.896511 13.828910,46.707264 16.254343,49.836636 
	C17.066620,50.884659 20.369570,50.002277 22.852776,50.002277 
	C22.881092,50.038532 23.282280,50.385029 23.474895,50.823208 
	C28.739571,62.799774 33.583561,74.982033 39.349358,86.711342 
	C44.467564,97.123283 41.020908,97.424278 52.856384,92.972252 
	C53.128155,92.870018 53.316040,92.544762 53.950760,91.926201 
	C52.979500,87.702156 52.395107,83.031654 50.804680,78.733398 
	C48.302280,71.970474 48.794460,67.224045 55.181053,62.209496 
	C62.013943,56.844513 65.916679,48.931000 62.536385,39.590668 
	C60.277641,33.349388 52.509716,29.010866 43.382668,29.000898 
M104.003601,31.563368 
	C103.912621,30.126558 103.821640,28.689749 103.684792,26.528526 
	C98.877678,27.844839 94.567528,28.912567 90.352837,30.275507 
	C89.524788,30.543280 88.752106,31.889421 88.559723,32.858486 
	C88.452850,33.396839 89.629814,34.159363 90.170639,34.864929 
	C90.818535,35.710163 91.705040,36.520657 91.968628,37.487804 
	C93.469093,42.993351 93.891685,49.019592 96.448830,53.952190 
	C99.571564,59.975777 99.665207,65.416824 97.907135,71.608246 
	C96.844452,75.350685 96.855835,79.398102 96.318069,83.860832 
	C100.688187,83.035461 103.602219,82.485092 107.104134,81.823692 
	C107.104134,75.772491 107.104134,69.916229 107.104134,63.073311 
	C119.807434,69.307724 131.605179,75.097725 143.565567,80.967537 
	C144.681442,71.429688 144.602768,71.613426 136.659317,68.211800 
	C133.870529,67.017555 131.578308,64.669083 129.048920,62.862267 
	C126.262955,60.872166 123.589584,58.681530 120.633095,56.986523 
	C118.238068,55.613415 115.496277,54.845139 112.184242,53.518597 
	C116.736046,48.802917 120.965149,44.627422 124.902191,40.192646 
	C125.842651,39.133301 126.656647,36.461559 126.080872,35.809029 
	C123.174187,32.514809 119.788971,29.642820 116.127693,26.205986 
	C112.467102,31.282928 109.171219,35.854057 105.028267,41.600006 
	C104.592918,37.713417 104.298279,35.083004 104.003601,31.563368 
M179.962402,60.430527 
	C180.182419,59.983173 180.370712,59.516632 180.627747,59.091675 
	C181.980103,56.855907 181.939484,53.598049 186.068604,53.676952 
	C190.168701,53.755291 191.404282,56.328487 192.654541,59.305519 
	C195.484589,66.044312 198.524078,72.703964 201.090515,79.541382 
	C202.659027,83.720184 204.124985,86.197540 209.611191,85.221802 
	C215.221436,84.224007 215.864120,84.397530 213.657791,79.039421 
	C205.627670,59.538223 197.523300,40.067574 189.416702,20.597988 
	C189.004333,19.607538 188.310059,18.734457 187.366119,17.179115 
	C181.732452,28.434340 176.357025,39.033634 171.181747,49.729771 
	C170.664627,50.798512 171.464935,52.455379 171.471207,53.840122 
	C171.477829,55.311699 171.816940,57.208862 171.061569,58.187313 
	C166.240524,64.432068 161.157684,70.474709 156.077637,76.685799 
	C162.223175,80.763145 171.469849,78.550270 173.987778,73.329025 
	C175.935577,69.289963 177.761276,65.192009 179.962402,60.430527 
M202.418961,36.596107 
	C206.003113,34.926167 205.388199,38.304985 205.761795,39.711979 
	C208.108261,48.548847 210.155457,57.464836 212.460129,66.313377 
	C213.019745,68.461922 213.534195,71.092506 217.041412,70.130470 
	C220.133118,69.282394 222.071564,68.074104 221.105347,64.279861 
	C220.247742,60.912205 220.142212,57.356991 219.349701,53.967575 
	C218.696411,51.173576 219.335983,49.359135 221.628036,47.531803 
	C225.384171,44.537262 229.094055,41.381241 232.299759,37.821690 
	C238.612350,30.812334 236.789520,24.089540 227.631821,21.919094 
	C217.771683,19.582163 207.907486,20.760151 197.978394,24.255838 
	C199.295868,28.558876 200.499466,32.489937 202.418961,36.596107 
M148.591690,65.944412 
	C155.830887,64.664513 162.766510,62.786430 167.598282,56.613125 
	C161.469620,49.433937 161.482239,49.460140 153.786163,53.168629 
	C152.697250,53.693336 151.415527,53.817894 150.223038,54.127663 
	C153.197021,49.359329 156.825836,45.560776 160.477905,41.784691 
	C164.139297,37.998947 164.101471,36.485680 159.444885,33.943768 
	C152.154434,29.964117 144.979340,30.889780 137.566238,34.379051 
	C129.539230,38.157272 127.579765,48.233803 129.355682,54.541878 
	C131.408173,61.832352 140.417252,67.487152 148.591690,65.944412 
M70.137688,81.726402 
	C78.691010,85.329819 90.199699,80.098572 94.016167,70.063217 
	C96.285416,64.096260 96.024445,58.131313 91.507645,53.244678 
	C87.144836,48.524658 81.279007,48.299690 75.790565,50.388309 
	C72.141777,51.776852 68.534294,54.260143 65.907089,57.158691 
	C58.549942,65.275711 60.247135,75.383522 70.137688,81.726402 
M247.112747,69.238991 
	C248.226212,57.252792 249.339676,45.266598 250.535553,32.393391 
	C245.897705,33.623158 241.513489,34.134304 237.851166,36.035843 
	C236.061905,36.964867 230.818695,39.531162 236.295120,43.232349 
	C236.863861,43.616722 237.056396,45.004829 236.950485,45.869259 
	C236.137711,52.502289 235.172195,59.116520 234.346085,65.748055 
	C234.191040,66.992584 234.037720,68.522095 234.601288,69.511200 
	C235.722244,71.478607 244.900040,71.731064 247.112747,69.238991 
M249.894012,26.435471 
	C252.311691,24.171133 253.765320,21.154810 251.148438,18.761473 
	C249.299286,17.070299 245.884201,16.127810 243.416626,16.499645 
	C242.254974,16.674694 241.005676,20.722809 240.989655,23.024197 
	C240.964233,26.672972 244.044754,27.880861 249.894012,26.435471 
M156.581177,18.255060 
	C160.579437,15.478726 156.973709,13.806952 155.492096,12.161800 
	C153.679855,10.149510 151.881668,10.379798 150.501877,13.020082 
	C149.916702,14.139842 148.612961,14.859503 147.848495,15.915051 
	C145.992981,18.477125 144.262177,21.129513 142.481110,23.745514 
	C142.913834,24.125687 143.346542,24.505861 143.779266,24.886036 
	C147.848114,22.797178 151.916977,20.708321 156.581177,18.255060 
z"/>
<path fill="#FFFFFF" opacity="1.000000" stroke="none" 
	d="
M60.110847,83.876663 
	C59.568741,83.199036 59.211060,82.331223 58.853378,81.463402 
	C59.122051,81.360191 59.390728,81.256989 59.659401,81.153778 
	C59.844624,81.695778 60.029842,82.237785 60.424034,83.028976 
	C60.520424,83.414268 60.407852,83.550362 60.110847,83.876663 
z"/>
<path fill="#F9C61B" opacity="1.000000" stroke="none" 
	d="
M43.856010,29.000898 
	C52.509716,29.010866 60.277641,33.349388 62.536385,39.590668 
	C65.916679,48.931000 62.013943,56.844513 55.181053,62.209496 
	C48.794460,67.224045 48.302280,71.970474 50.804680,78.733398 
	C52.395107,83.031654 52.979500,87.702156 53.950760,91.926201 
	C53.316040,92.544762 53.128155,92.870018 52.856384,92.972252 
	C41.020908,97.424278 44.467564,97.123283 39.349358,86.711342 
	C33.583561,74.982033 28.739571,62.799774 23.474895,50.823208 
	C23.282280,50.385029 22.881092,50.038532 22.852776,50.002277 
	C20.369570,50.002277 17.066620,50.884659 16.254343,49.836636 
	C13.828910,46.707264 12.186003,42.896511 10.733752,39.159035 
	C10.482059,38.511284 12.444914,36.562534 13.734204,35.827168 
	C22.911703,30.592636 32.790596,28.194998 43.856010,29.000898 
M53.589821,46.953926 
	C51.046230,42.426739 47.151161,42.099499 42.862816,43.776760 
	C41.995819,44.115864 40.881233,45.816238 41.081753,46.569195 
	C42.461082,51.748573 44.159588,56.842953 45.922256,62.500221 
	C51.077335,58.105152 56.225430,54.835522 53.589821,46.953926 
z"/>
<path fill="#F6C41B" opacity="1.000000" stroke="none" 
	d="
M104.003624,32.007980 
	C104.298279,35.083004 104.592918,37.713417 105.028267,41.600006 
	C109.171219,35.854057 112.467102,31.282928 116.127693,26.205986 
	C119.788971,29.642820 123.174187,32.514809 126.080872,35.809029 
	C126.656647,36.461559 125.842651,39.133301 124.902191,40.192646 
	C120.965149,44.627422 116.736046,48.802917 112.184242,53.518597 
	C115.496277,54.845139 118.238068,55.613415 120.633095,56.986523 
	C123.589584,58.681530 126.262955,60.872166 129.048920,62.862267 
	C131.578308,64.669083 133.870529,67.017555 136.659317,68.211800 
	C144.602768,71.613426 144.681442,71.429688 143.565567,80.967537 
	C131.605179,75.097725 119.807434,69.307724 107.104134,63.073311 
	C107.104134,69.916229 107.104134,75.772491 107.104134,81.823692 
	C103.602219,82.485092 100.688187,83.035461 96.318069,83.860832 
	C96.855835,79.398102 96.844452,75.350685 97.907135,71.608246 
	C99.665207,65.416824 99.571564,59.975777 96.448830,53.952190 
	C93.891685,49.019592 93.469093,42.993351 91.968628,37.487804 
	C91.705040,36.520657 90.818535,35.710163 90.170639,34.864929 
	C89.629814,34.159363 88.452850,33.396839 88.559723,32.858486 
	C88.752106,31.889421 89.524788,30.543280 90.352837,30.275507 
	C94.567528,28.912567 98.877678,27.844839 103.684792,26.528526 
	C103.821640,28.689749 103.912621,30.126558 104.003624,32.007980 
z"/>
<path fill="#F8C51B" opacity="1.000000" stroke="none" 
	d="
M179.801834,60.775383 
	C177.761276,65.192009 175.935577,69.289963 173.987778,73.329025 
	C171.469849,78.550270 162.223175,80.763145 156.077637,76.685799 
	C161.157684,70.474709 166.240524,64.432068 171.061569,58.187313 
	C171.816940,57.208862 171.477829,55.311699 171.471207,53.840122 
	C171.464935,52.455379 170.664627,50.798512 171.181747,49.729771 
	C176.357025,39.033634 181.732452,28.434340 187.366119,17.179115 
	C188.310059,18.734457 189.004333,19.607538 189.416702,20.597988 
	C197.523300,40.067574 205.627670,59.538223 213.657791,79.039421 
	C215.864120,84.397530 215.221436,84.224007 209.611191,85.221802 
	C204.124985,86.197540 202.659027,83.720184 201.090515,79.541382 
	C198.524078,72.703964 195.484589,66.044312 192.654541,59.305519 
	C191.404282,56.328487 190.168701,53.755291 186.068604,53.676952 
	C181.939484,53.598049 181.980103,56.855907 180.627747,59.091675 
	C180.370712,59.516632 180.182419,59.983173 179.801834,60.775383 
M185.979019,40.574921 
	C185.303024,42.367119 184.627029,44.159321 183.764191,46.446926 
	C186.136627,46.653214 187.866699,46.803650 190.096359,46.997524 
	C189.422134,44.366119 188.979065,42.277641 188.283859,40.276764 
	C188.167816,39.942829 186.955765,39.989716 185.979019,40.574921 
z"/>
<path fill="#F8C51B" opacity="1.000000" stroke="none" 
	d="
M202.061005,36.508553 
	C200.499466,32.489937 199.295868,28.558876 197.978394,24.255838 
	C207.907486,20.760151 217.771683,19.582163 227.631821,21.919094 
	C236.789520,24.089540 238.612350,30.812334 232.299759,37.821690 
	C229.094055,41.381241 225.384171,44.537262 221.628036,47.531803 
	C219.335983,49.359135 218.696411,51.173576 219.349701,53.967575 
	C220.142212,57.356991 220.247742,60.912205 221.105347,64.279861 
	C222.071564,68.074104 220.133118,69.282394 217.041412,70.130470 
	C213.534195,71.092506 213.019745,68.461922 212.460129,66.313377 
	C210.155457,57.464836 208.108261,48.548847 205.761795,39.711979 
	C205.388199,38.304985 206.003113,34.926167 202.061005,36.508553 
M217.342575,40.844044 
	C219.819275,38.750904 222.295975,36.657768 224.772675,34.564632 
	C224.560867,33.983086 224.349060,33.401539 224.137238,32.819992 
	C221.737244,33.094471 218.776428,32.640507 217.136902,33.902760 
	C216.066315,34.726997 216.913147,38.041706 217.342575,40.844044 
z"/>
<path fill="#F6C41B" opacity="1.000000" stroke="none" 
	d="
M148.250366,66.166153 
	C140.417252,67.487152 131.408173,61.832352 129.355682,54.541878 
	C127.579765,48.233803 129.539230,38.157272 137.566238,34.379051 
	C144.979340,30.889780 152.154434,29.964117 159.444885,33.943768 
	C164.101471,36.485680 164.139297,37.998947 160.477905,41.784691 
	C156.825836,45.560776 153.197021,49.359329 150.223038,54.127663 
	C151.415527,53.817894 152.697250,53.693336 153.786163,53.168629 
	C161.482239,49.460140 161.469620,49.433937 167.598282,56.613125 
	C162.766510,62.786430 155.830887,64.664513 148.250366,66.166153 
M144.186340,50.722939 
	C147.228500,48.254257 150.270660,45.785576 153.232117,43.382378 
	C148.438248,38.108410 143.326385,37.861458 140.102844,41.426571 
	C136.735474,45.150772 137.324707,50.216625 141.715378,53.933826 
	C142.467529,53.100311 143.225174,52.260708 144.186340,50.722939 
z"/>
<path fill="#F7C41B" opacity="1.000000" stroke="none" 
	d="
M69.794754,81.538582 
	C60.247135,75.383522 58.549942,65.275711 65.907089,57.158691 
	C68.534294,54.260143 72.141777,51.776852 75.790565,50.388309 
	C81.279007,48.299690 87.144836,48.524658 91.507645,53.244678 
	C96.024445,58.131313 96.285416,64.096260 94.016167,70.063217 
	C90.199699,80.098572 78.691010,85.329819 69.794754,81.538582 
M77.084419,59.123093 
	C76.931747,57.765919 76.779068,56.408749 76.565933,54.514221 
	C72.042267,57.476673 71.717529,60.923950 73.602364,64.723839 
	C75.303078,68.152527 80.333290,69.437691 84.078400,67.302765 
	C87.321495,65.453995 89.225029,62.714729 88.062485,58.102848 
	C83.783669,63.381588 82.458488,63.531948 77.084419,59.123093 
z"/>
<path fill="#F6C41B" opacity="1.000000" stroke="none" 
	d="
M247.027618,69.656021 
	C244.900040,71.731064 235.722244,71.478607 234.601288,69.511200 
	C234.037720,68.522095 234.191040,66.992584 234.346085,65.748055 
	C235.172195,59.116520 236.137711,52.502289 236.950485,45.869259 
	C237.056396,45.004829 236.863861,43.616722 236.295120,43.232349 
	C230.818695,39.531162 236.061905,36.964867 237.851166,36.035843 
	C241.513489,34.134304 245.897705,33.623158 250.535553,32.393391 
	C249.339676,45.266598 248.226212,57.252792 247.027618,69.656021 
z"/>
<path fill="#F4C21B" opacity="1.000000" stroke="none" 
	d="
M249.609222,26.654339 
	C244.044754,27.880861 240.964233,26.672972 240.989655,23.024197 
	C241.005676,20.722809 242.254974,16.674694 243.416626,16.499645 
	C245.884201,16.127810 249.299286,17.070299 251.148438,18.761473 
	C253.765320,21.154810 252.311691,24.171133 249.609222,26.654339 
z"/>
<path fill="#F0BF1B" opacity="1.000000" stroke="none" 
	d="
M156.283508,18.437262 
	C151.916977,20.708321 147.848114,22.797178 143.779266,24.886036 
	C143.346542,24.505861 142.913834,24.125687 142.481110,23.745514 
	C144.262177,21.129513 145.992981,18.477125 147.848495,15.915051 
	C148.612961,14.859503 149.916702,14.139842 150.501877,13.020082 
	C151.881668,10.379798 153.679855,10.149510 155.492096,12.161800 
	C156.973709,13.806952 160.579437,15.478726 156.283508,18.437262 
z"/>
<path fill="#3B5B90" opacity="1.000000" stroke="none" 
	d="
M53.746338,47.300564 
	C56.225430,54.835522 51.077335,58.105152 45.922256,62.500221 
	C44.159588,56.842953 42.461082,51.748573 41.081753,46.569195 
	C40.881233,45.816238 41.995819,44.115864 42.862816,43.776760 
	C47.151161,42.099499 51.046230,42.426739 53.746338,47.300564 
M49.765675,48.705109 
	C48.695084,48.158085 47.624493,47.611057 46.553905,47.064034 
	C46.243954,47.386688 45.934006,47.709343 45.624054,48.031998 
	C46.426968,50.326309 47.229877,52.620625 48.032787,54.914936 
	C48.629097,54.881432 49.225403,54.847927 49.821712,54.814423 
	C49.915562,52.997292 50.009407,51.180164 49.765675,48.705109 
z"/>
<path fill="#455973" opacity="1.000000" stroke="none" 
	d="
M186.114594,40.217777 
	C186.955765,39.989716 188.167816,39.942829 188.283859,40.276764 
	C188.979065,42.277641 189.422134,44.366119 190.096359,46.997524 
	C187.866699,46.803650 186.136627,46.653214 183.764191,46.446926 
	C184.627029,44.159321 185.303024,42.367119 186.114594,40.217777 
z"/>
<path fill="#3E5B86" opacity="1.000000" stroke="none" 
	d="
M217.121826,40.542442 
	C216.913147,38.041706 216.066315,34.726997 217.136902,33.902760 
	C218.776428,32.640507 221.737244,33.094471 224.137238,32.819992 
	C224.349060,33.401539 224.560867,33.983086 224.772675,34.564632 
	C222.295975,36.657768 219.819275,38.750904 217.121826,40.542442 
z"/>
<path fill="#3A598C" opacity="1.000000" stroke="none" 
	d="
M144.084579,51.072021 
	C143.225174,52.260708 142.467529,53.100311 141.715378,53.933826 
	C137.324707,50.216625 136.735474,45.150772 140.102844,41.426571 
	C143.326385,37.861458 148.438248,38.108410 153.232117,43.382378 
	C150.270660,45.785576 147.228500,48.254257 144.084579,51.072021 
z"/>
<path fill="#3D5D90" opacity="1.000000" stroke="none" 
	d="
M77.259445,59.490532 
	C82.458488,63.531948 83.783669,63.381588 88.062485,58.102848 
	C89.225029,62.714729 87.321495,65.453995 84.078400,67.302765 
	C80.333290,69.437691 75.303078,68.152527 73.602364,64.723839 
	C71.717529,60.923950 72.042267,57.476673 76.565933,54.514221 
	C76.779068,56.408749 76.931747,57.765919 77.259445,59.490532 
z"/>
<path fill="#25262E" opacity="1.000000" stroke="none" 
	d="
M49.934464,49.034073 
	C50.009407,51.180164 49.915562,52.997292 49.821712,54.814423 
	C49.225403,54.847927 48.629097,54.881432 48.032787,54.914936 
	C47.229877,52.620625 46.426968,50.326309 45.624054,48.031998 
	C45.934006,47.709343 46.243954,47.386688 46.553905,47.064034 
	C47.624493,47.611057 48.695084,48.158085 49.934464,49.034073 
z"/>
</svg>